<svg width="34" height="34" viewBox="0 0 34 34" fill="none" xmlns="http://www.w3.org/2000/svg">
<path d="M29.1428 8.49993C29.1428 7.82929 28.5992 7.28564 27.9285 7.28564H4.85711C4.18645 7.28564 3.64282 7.82929 3.64282 8.49993C3.64282 9.17057 4.18645 9.71422 4.85711 9.71422H27.9285C28.5992 9.71422 29.1428 9.17057 29.1428 8.49993Z" fill="#3C3C3B"/>
<path d="M29.1428 16.9998C29.1428 16.3292 28.5992 15.7854 27.9285 15.7854L14.5714 15.7858C13.9007 15.7858 13.3571 16.3294 13.3571 17.0001C13.3571 17.6707 13.9007 18.2143 14.5714 18.2143L27.9285 18.2141C28.5992 18.2141 29.1428 17.6703 29.1428 16.9998Z" fill="#3C3C3B"/>
<path d="M27.9285 24.2854C28.5992 24.2854 29.1428 24.829 29.1428 25.4997C29.1428 26.1702 28.5992 26.7138 27.9285 26.7138H7.28568C6.61503 26.7138 6.07139 26.1702 6.07139 25.4997C6.07139 24.829 6.61503 24.2854 7.28568 24.2854H27.9285Z" fill="#3C3C3B"/>
</svg>
