<svg width="78" height="76" viewBox="0 0 78 76" fill="none" xmlns="http://www.w3.org/2000/svg">
<g clip-path="url(#clip0_300_833)">
<path d="M75.7593 46.5689C75.7593 46.5689 66.2849 42.1007 60.8991 33.9138C56.6575 27.4654 52.7835 25.8534 35.723 29.8642C33.7135 33.8947 38.9753 35.2171 48.6706 34.1814C48.3472 38.3644 47.2044 41.6497 54.9306 47.4561" stroke="white" stroke-opacity="0.8" stroke-miterlimit="10" stroke-linecap="round" stroke-linejoin="round"/>
<path d="M15.0139 13.1649C15.0139 13.1649 15.0359 16.3684 36.6603 19.0898C43.4176 19.9403 43.534 24.3496 46.8848 28.5141" stroke="white" stroke-opacity="0.8" stroke-miterlimit="10" stroke-linecap="round" stroke-linejoin="round"/>
<path d="M50.4839 43.7118C50.4839 43.7118 52.0939 47.4442 51.3199 49.9413C50.5459 52.4384 48.2284 56.9425 45.9714 58.6522C43.7916 60.3071 38.9413 60.8065 45.8343 49.3238" stroke="white" stroke-opacity="0.8" stroke-miterlimit="10" stroke-linecap="round" stroke-linejoin="round"/>
<path d="M4.50393 24.5747C4.50393 24.5747 17.5909 27.8362 19.1408 34.748" stroke="white" stroke-opacity="0.8" stroke-miterlimit="10" stroke-linecap="round" stroke-linejoin="round"/>
<path d="M41.6551 56.9989C41.6551 56.9989 30.5582 63.8284 40.1152 46.3643" stroke="white" stroke-opacity="0.8" stroke-miterlimit="10" stroke-linecap="round" stroke-linejoin="round"/>
<path d="M35.5916 43.3283C33.6529 47.3586 32.9401 50.7872 33.5487 47.6419" stroke="white" stroke-opacity="0.8" stroke-miterlimit="10" stroke-linecap="round" stroke-linejoin="round"/>
<path d="M30.8432 53.0611C30.8432 53.0611 30.5716 57.7077 35.6246 55.5088" stroke="white" stroke-opacity="0.8" stroke-miterlimit="10" stroke-linecap="round" stroke-linejoin="round"/>
<path d="M27.3284 37.3389L16.8621 40.4661C15.5616 40.8571 14.1194 40.1781 13.6536 38.9598C13.1878 37.7416 13.8732 36.4277 15.1737 36.0367L25.64 32.9096C26.9405 32.5186 28.3827 33.1976 28.8485 34.4159C29.3142 35.6341 28.6289 36.948 27.3284 37.3389Z" stroke="white" stroke-opacity="0.8" stroke-miterlimit="10" stroke-linecap="round" stroke-linejoin="round"/>
<path d="M28.555 42.2392L19.1597 45.9238C17.9042 46.4133 16.4116 45.8558 15.8346 44.6811C15.2629 43.5052 15.8179 42.1446 17.0719 41.6502L26.4671 37.9656C27.7227 37.4761 29.2153 38.0335 29.7922 39.2082C30.3639 40.3842 29.8089 41.7448 28.555 42.2392Z" stroke="white" stroke-opacity="0.8" stroke-miterlimit="10" stroke-linecap="round" stroke-linejoin="round"/>
<path d="M29.7277 48.3005L21.7288 50.6894C20.4298 51.0792 18.9893 50.403 18.5243 49.1892C18.0593 47.9754 18.7441 46.6661 20.0432 46.2763L28.0421 43.8874C29.3411 43.4975 30.7816 44.1738 31.2466 45.3876C31.7116 46.6013 31.0283 47.9155 29.7277 48.3005Z" stroke="white" stroke-opacity="0.8" stroke-miterlimit="10" stroke-linecap="round" stroke-linejoin="round"/>
<path d="M31.9371 52.5611L25.9046 54.3579C24.6071 54.7467 23.1685 54.0729 22.7043 52.8632C22.2401 51.6534 22.9242 50.3483 24.2217 49.9595L30.2542 48.1627C31.5517 47.7739 32.9903 48.4477 33.4545 49.6574C33.9188 50.8671 33.2346 52.1723 31.9371 52.5611Z" stroke="white" stroke-opacity="0.8" stroke-miterlimit="10" stroke-linecap="round" stroke-linejoin="round"/>
</g>
<defs>
<clipPath id="clip0_300_833">
<rect width="63.9354" height="59.6492" fill="white" transform="translate(0.18071 18.0137) rotate(-15.4641)"/>
</clipPath>
</defs>
</svg>
