<svg width="465" height="446" viewBox="0 0 465 446" fill="none" xmlns="http://www.w3.org/2000/svg">
<path d="M25.3318 298.522C26.8816 301.572 28.4314 304.647 29.9566 307.698C32.638 303.442 40.1164 303.836 42.355 308.337C45.307 305.336 50.35 307.181 54.04 309.174C61.3708 313.134 68.677 317.07 76.0078 321.031C79.1074 322.704 82.5268 324.795 83.191 328.239C84.1996 333.528 78.0742 338.768 80.2882 343.663C81.7888 346.984 86.4628 348.017 87.8158 351.412C88.6276 353.429 88.0126 355.815 88.8244 357.833C90.2266 361.277 94.9006 361.941 97.3852 364.721C100.386 368.066 99.3778 373.208 99.6484 377.685C99.9436 382.162 103.978 387.476 107.939 385.36C108.947 384.819 109.71 383.884 110.743 383.417C113.105 382.408 115.614 384.253 118.049 385.09C120.485 385.926 124.273 384.056 123.018 381.793C127.643 381.99 131.948 385.385 133.227 389.837C135.54 386.566 140.189 385.631 144.101 386.565C148.012 387.5 151.358 389.936 154.605 392.297C155.269 392.789 155.933 393.257 156.597 393.749C157.778 394.61 159.033 395.495 160.484 395.643C163.633 395.963 166.585 392.642 169.611 393.65C172.735 394.683 172.735 399.062 172.12 402.285C178.319 397.98 183.362 392.002 186.511 385.139C191.382 384.401 196.007 382.064 199.524 378.595C202.157 374.462 204.813 370.354 207.446 366.221C209.291 363.343 211.234 360.367 214.161 358.645C217.089 356.898 221.32 356.849 223.534 359.432C227.027 363.515 223.14 369.641 219.081 373.158C215.022 376.676 210.127 381.301 211.8 386.393C217.778 386.295 225.281 387.205 227.224 392.839C227.79 394.462 227.765 396.282 228.626 397.758C229.832 399.849 232.464 400.711 234.038 402.531C235.736 404.524 235.982 407.328 236.449 409.886C237.507 415.839 240.164 421.498 244.05 426.122C249.512 426.122 254.997 426.147 260.459 426.147C266.264 429.616 262.919 439.898 268.085 444.228C272.783 448.164 279.573 444.031 285.059 441.276C288.134 439.726 291.405 438.668 294.677 437.586C296.547 436.971 298.441 436.356 300.409 436.085C305.526 435.396 310.716 437.168 315.833 436.577C320.95 435.987 326.362 431.141 324.394 426.368C327.494 425.95 330.372 424.228 332.217 421.719C337.629 414.265 333.693 401.375 341.516 396.479C347.912 398.521 355.07 397.955 361.073 394.954C362.819 394.069 364.541 392.986 366.509 392.839C370.371 392.592 373.299 396.036 376.005 398.841C378.711 401.621 383.877 403.638 387.345 401.891C391.724 399.702 395.045 395.495 396.152 390.723C394.799 393.158 397.284 396.283 400.039 396.676C402.794 397.07 405.451 395.668 407.886 394.315C410.715 392.74 413.569 391.166 416.398 389.591C417.357 389.05 418.366 388.46 418.858 387.476C420.383 384.302 415.291 380.366 417.382 377.537C420.678 375.668 425.525 378.177 425.894 381.941C435.857 376.184 445.82 370.403 455.783 364.647C457.8 363.466 460.161 359.579 460.161 359.579C460.161 359.579 453.765 354.536 450.936 351.264C448.427 348.362 449.313 344.007 449.141 340.17C448.698 330.699 440.998 321.326 444.762 312.642C445.377 311.24 446.287 309.887 446.312 308.362C446.385 305.09 442.425 303.098 439.153 303.467C435.881 303.836 432.978 305.631 429.756 306.296C427.345 303.048 427.517 298.104 430.174 295.053C431.601 293.405 433.593 292.347 435.242 290.896C439.497 287.181 441.269 280.884 439.571 275.496C441.244 274.365 443.483 276.013 444.294 277.858C445.106 279.703 445.205 281.868 446.459 283.467C449.313 287.108 455.094 284.967 458.931 282.409C462.818 279.826 463.827 271.29 463.827 271.29C463.827 271.29 466.016 263.319 462.572 260.613C459.128 257.883 454.872 256.505 450.69 255.177C447.246 247.821 441.908 241.376 435.34 236.628C433.839 235.546 432.216 234.488 431.256 232.914C430.395 231.487 430.149 229.765 429.559 228.191C428.329 224.87 425.918 222.852 423.089 220.737C409.953 210.946 401.49 195.153 400.605 178.769C400.26 172.324 396.841 165.239 395.021 159.065C393.2 152.865 391.872 147.527 385.451 148.216C385.377 141.869 376.103 138.081 371.601 142.558C372.561 146.642 373.545 150.725 374.504 154.784C374.75 155.817 374.972 156.949 374.455 157.859C373.446 159.655 370.814 159.114 368.797 159.507C364.049 160.418 362.622 166.863 358.342 169.101C355.734 170.454 352.61 170.012 349.707 169.52C343.311 168.437 335.907 166.617 333.299 160.664C332.291 158.376 332.143 155.645 330.569 153.702C328.035 150.528 323.238 150.799 319.302 149.84C315.341 148.88 311.504 143.886 314.529 141.18C320.335 136.285 323.681 129.151 326.879 122.263C327.912 120.024 328.97 117.564 328.404 115.154C322.697 115.4 316.916 112.915 313.176 108.585C309.339 103.296 322.155 97.294 319.154 91.4884C320.507 92.8414 322.869 91.1194 323.238 89.2498C323.607 87.3802 323.041 85.363 323.73 83.5672C324.96 80.32 329.166 79.8034 332.512 78.9178C342.204 76.3348 348.748 66.7408 350.741 56.9254C352.733 47.11 351.036 36.9256 349.338 27.0364C344.049 25.9048 338.17 28.3648 335.267 32.965C328.379 29.644 320.335 24.232 321.516 16.6798C309.929 16.4092 298.318 21.6244 290.815 30.4804C290.864 27.2824 288.281 24.5272 285.305 23.3956C282.328 22.2886 279.007 22.4854 275.858 22.9036C274.333 23.1004 272.66 23.2972 271.406 22.4116C267.666 19.7794 273.177 13.3588 270.741 9.47202C260.877 12.7684 249.758 8.63562 243.804 0.124023C237.285 0.247023 230.717 7.77463 225.477 3.88783C225.305 9.49663 223.657 16.7782 218.073 17.2948C216.695 17.4178 215.096 17.1472 214.161 18.1312C213.448 18.8938 213.448 20.05 213.497 21.1078C213.792 27.7498 213.448 34.441 212.489 41.0092C214.014 41.2798 215.539 41.5258 217.064 41.7964C217.138 44.527 217.187 47.233 217.261 49.9636C218.368 50.6032 219.672 50.8984 220.951 50.8246C221.246 53.8012 221.099 56.8024 220.533 59.7298C222.722 59.533 224.567 62.2882 223.534 64.2316C221.787 64.33 220.016 64.4038 218.27 64.5022C219.549 68.0446 216.744 72.3988 213.005 72.7186C207.667 73.1614 202.649 66.7654 197.827 69.127C198.344 76.1134 189.66 81.8944 183.387 78.721C182.969 81.5992 179.008 83.1982 176.72 81.427C177.852 76.4332 171.308 73.5304 166.265 72.6694C162.108 71.956 157.95 71.2426 153.793 70.5538C153.67 72.079 153.547 73.5796 153.424 75.1048C152.194 73.1122 149.365 76.4086 150.275 78.5734C151.185 80.7382 153.375 82.7062 152.784 84.9694C152.538 85.9042 151.825 86.6422 151.358 87.5032C149.759 90.283 150.718 93.8008 150.251 96.9742C149.783 100.148 145.872 103.296 143.633 100.984C142.994 105.658 142.354 110.307 141.69 114.981C141.37 117.245 140.607 120.024 138.369 120.443C134.334 121.23 131.087 113.407 127.84 115.941C128.947 119.188 126.02 123.099 122.6 122.976C119.55 126.888 121.419 133.628 117.483 136.679C114.925 138.671 111.26 137.933 108.086 138.548C104.913 139.188 101.985 143.419 104.544 145.362C101.813 147.626 97.8034 147.429 94.3594 146.592C90.9154 145.756 87.4468 144.428 83.929 144.846C80.4112 145.264 76.8442 148.364 77.533 151.832C73.3756 155.006 68.2342 157.392 63.142 156.137C61.8628 155.817 60.4114 155.375 59.2798 156.014C58.1482 156.678 57.7792 158.105 57.2872 159.335C55.885 162.779 52.318 165.239 48.5788 165.313C46.4386 165.362 43.9048 164.846 42.5272 166.469C41.74 167.379 41.6416 168.683 41.1496 169.79C39.6736 172.964 35.3194 173.456 31.9 172.668C28.4806 171.881 25.0858 170.282 21.6418 170.946C19.9198 177.613 18.1978 184.28 16.4512 190.946C15.91 193.013 13.6468 195.571 12.2692 193.947C11.974 192.201 11.6788 190.479 11.3836 188.732C9.46478 184.968 4.37258 192.816 1.27298 189.741C-1.62982 186.764 2.23238 198.4 6.04538 200.27C7.98878 201.229 10.2028 201.598 12.0478 202.705C14.1388 203.96 15.6148 206.051 17.4106 207.723C23.8558 213.701 33.6466 213.652 42.4042 213.283C44.9626 216.432 39.0832 220.909 40.5346 224.673C41.4694 227.084 44.6182 227.477 47.152 227.945C49.6858 228.412 52.7362 230.38 51.8752 232.815C51.211 234.66 48.8248 235.079 46.8568 235.152C46.5124 238.449 46.168 241.745 45.8236 245.042C34.606 247.575 23.167 249.125 11.6788 249.642C9.14498 251.61 10.5964 255.693 12.589 258.203C14.5816 260.712 17.14 263.615 16.156 266.69C18.493 266.739 20.8054 266.788 23.1424 266.837C24.4708 269.223 21.7894 271.733 20.4856 274.119C16.6234 281.228 27.8164 290.847 25.3318 298.522Z" fill="#C4C4C4" fill-opacity="0.28"/>
</svg>
