<svg width="58" height="54" viewBox="0 0 58 54" fill="none" xmlns="http://www.w3.org/2000/svg">
<path d="M14.7887 38.1579C16.3753 38.3962 21.0145 37.6812 22.4534 37.2749C23.4955 36.9819 24.4949 36.6342 25.4554 36.2396C25.9221 36.0482 26.381 35.8607 26.8204 35.638C38.9026 29.5121 43.5729 18.8934 43.2074 19.2372C43.2074 19.2372 24.3238 22.0735 22.3795 28.6955C20.4351 35.3176 25.1599 40.7051 29.9274 40.0448C38.1482 38.908 46.3728 23.6401 43.2113 19.2332" stroke="white" stroke-miterlimit="10" stroke-linecap="round" stroke-linejoin="round"/>
<path d="M35.0372 21.4719C35.0372 21.4719 36.5771 27.3712 35.0372 29.9926C35.0372 29.9926 36.7677 29.0745 41.8697 28.973" stroke="white" stroke-miterlimit="10" stroke-linecap="round" stroke-linejoin="round"/>
<path d="M27.7964 23.7065C27.7964 23.7065 33.2329 32.2273 29.3442 34.2314" stroke="white" stroke-miterlimit="10" stroke-linecap="round" stroke-linejoin="round"/>
<path d="M29.3441 34.2354C29.3441 34.2354 33.68 33.9658 37.5299 35.3449" stroke="white" stroke-miterlimit="10" stroke-linecap="round" stroke-linejoin="round"/>
<path d="M53.2791 53.414C53.2791 53.414 52.0503 53.6757 56.3784 37.6422C58.0233 31.5514 57.4011 28.3479 56.6623 26.5859C56.289 25.6912 56.7362 24.7106 56.5029 23.773C55.1224 18.1784 56.6234 17.4947 55.6707 15.7054C55.6707 15.7054 48.2705 12.83 51.2259 29.6723C41.7919 38.9939 45.6884 42.2913 45.6884 42.2913" stroke="white" stroke-opacity="0.8" stroke-miterlimit="10" stroke-linecap="round" stroke-linejoin="round"/>
<path d="M51.9609 16.7915C51.9609 16.7915 43.7751 -0.683671 40.9714 0.660274C36.2505 2.92232 48.2199 17.2916 47.5355 21.4719" stroke="white" stroke-opacity="0.8" stroke-miterlimit="10" stroke-linecap="round"/>
<path d="M39.867 15.5179C28.0025 -3.8521 40.8003 4.35612 40.2403 4.75461" stroke="white" stroke-opacity="0.8" stroke-miterlimit="10" stroke-linecap="round"/>
<path d="M34.8078 5.81335C36.616 5.57894 26.9137 -0.695402 34.8078 16.3227" stroke="white" stroke-opacity="0.8" stroke-miterlimit="10" stroke-linecap="round"/>
<path d="M39.867 53.414C39.867 53.414 35.2822 49.2259 33.3534 41.049" stroke="white" stroke-opacity="0.8" stroke-miterlimit="10" stroke-linecap="round"/>
<path d="M32.634 11.029C32.634 11.029 26.0543 6.89554 31.6657 19.2333" stroke="white" stroke-opacity="0.8" stroke-miterlimit="10" stroke-linecap="round"/>
<path d="M4.72089 53.4139C4.72089 53.4139 5.94972 53.6757 1.62159 37.6421C-0.0233291 31.5514 0.598863 28.3478 1.33772 26.5858C1.71103 25.6912 1.26383 24.7106 1.49715 23.7729C2.87764 18.1744 1.3766 17.4908 2.32934 15.7014C2.32934 15.7014 9.72954 12.826 6.77412 29.6683C16.2081 38.99 12.3116 42.2873 12.3116 42.2873" stroke="white" stroke-opacity="0.8" stroke-miterlimit="10" stroke-linecap="round" stroke-linejoin="round"/>
<path d="M6.04306 16.7915C6.04306 16.7915 14.2288 -0.683671 17.0325 0.660274C21.7534 2.92232 9.78399 17.2916 10.4684 21.4719" stroke="white" stroke-opacity="0.8" stroke-miterlimit="10" stroke-linecap="round"/>
<path d="M17.7636 4.75461C17.2036 4.35612 29.9974 -3.8521 18.1369 15.5179C18.1369 15.5179 15.407 22.3509 15.7453 24.1519" stroke="white" stroke-opacity="0.8" stroke-miterlimit="10" stroke-linecap="round"/>
<path d="M23.1922 5.81335C21.384 5.57894 31.0863 -0.695403 23.1922 16.3227C23.1922 16.3227 21.9128 19.62 20.4662 24.1519" stroke="white" stroke-opacity="0.8" stroke-miterlimit="10" stroke-linecap="round"/>
<path d="M18.133 53.414C18.133 53.414 22.7178 49.2259 24.6466 41.049" stroke="white" stroke-opacity="0.8" stroke-miterlimit="10" stroke-linecap="round"/>
<path d="M25.366 11.029C25.366 11.029 31.9457 6.89554 26.3343 19.2333L24.6505 22.7807" stroke="white" stroke-opacity="0.8" stroke-miterlimit="10" stroke-linecap="round"/>
</svg>
