<svg width="61" height="69" viewBox="0 0 61 69" fill="none" xmlns="http://www.w3.org/2000/svg">
<g clip-path="url(#clip0_300_826)">
<path d="M41.8329 64C41.8329 64 41.8329 60.3436 43.8611 56.8796C45.8223 53.5311 47.7834 46.2259 46.812 36.877C46.7631 36.2235 46.8061 35.5666 46.9397 34.9237C49.5763 23.8159 51.6653 15.3061 48.1201 15.1194C44.575 14.9327 43.1289 30.411 40.9994 32.8454C40.8776 32.9916 40.7064 33.0936 40.5147 33.134C39.7825 33.263 38.0688 32.5567 39.1923 22.2956C39.1923 22.2591 39.1923 22.2225 39.1923 22.1859C38.8171 8.9593 38.4095 6.59803 35.3389 6.45947C30.8933 6.25548 34.7974 29.3602 32.9052 29.9375C31.6092 30.3224 28.6461 8.46665 27.4292 5.49725C26.3807 2.93583 23.298 3.89805 22.6895 6.59225C22.0811 9.28646 26.622 28.9753 25.608 30.5149C24.6406 31.9851 22.9329 26.9624 22.7808 26.5063C22.7728 26.4856 22.7667 26.4644 22.7625 26.4428C22.7625 26.4428 20.2801 16.453 19.5175 12.9717C18.5177 8.41084 14.5142 10.3911 14.6663 14.5017C14.9421 21.7106 17.6172 33.6902 17.8869 34.6004C17.897 34.6359 17.9051 34.6719 17.9113 34.7082C18.0269 35.5146 19.2965 44.9327 15.2524 46.9765C15.1307 47.04 14.9563 46.9765 14.8468 47.0631C13.6989 47.9983 1.14682 37.056 0.0414983 42.252C-1.07194 47.5403 20.5681 58.3325 23.1621 60.5341C26.0988 63.0262 25.5228 63.9981 25.5228 63.9981" stroke="white" stroke-opacity="0.8" stroke-miterlimit="10"/>
<path d="M32.4882 38.7124L32.4884 38.7125L32.4884 38.7125L32.9445 39.1107L33.2492 38.5872C34.2607 36.8492 35.3274 35.9813 36.2938 35.6575C37.2471 35.3381 38.1809 35.522 39.0058 36.0541C40.6962 37.1445 41.833 39.6433 41.4121 41.8464C40.9415 44.3095 39.2284 47.5043 37.5899 50.1283C36.7771 51.4299 35.9942 52.5734 35.4145 53.3914C35.131 53.7914 34.8963 54.1132 34.7309 54.3372C34.6717 54.3008 34.6063 54.2603 34.535 54.2159C34.1646 53.9852 33.6357 53.6485 33.0034 53.2262C31.7379 52.3807 30.0634 51.1951 28.4207 49.8306C26.7744 48.4631 25.1787 46.9314 24.0562 45.3961C22.922 43.8448 22.3376 42.381 22.5395 41.1201L22.5395 41.12C22.9543 38.529 23.8004 37.1893 24.7302 36.5479C25.6534 35.911 26.7774 35.882 27.9421 36.188C29.1071 36.4941 30.2419 37.1192 31.0986 37.6823C31.5238 37.9617 31.8738 38.2214 32.1167 38.4107C32.2381 38.5052 32.3324 38.5819 32.3957 38.6343C32.4274 38.6606 32.4512 38.6807 32.4668 38.694L32.4839 38.7086L32.4877 38.7119L32.4882 38.7124Z" stroke="white"/>
</g>
<defs>
<clipPath id="clip0_300_826">
<rect width="61" height="68.871" fill="white"/>
</clipPath>
</defs>
</svg>
