<svg width="375" height="172" viewBox="0 0 375 172" fill="none" xmlns="http://www.w3.org/2000/svg">
<path d="M-102.456 73.8262L-102.368 73.334L-102.456 73.8262ZM-84.7144 75.9547L-84.7786 76.4506L-84.7144 75.9547ZM-72.4319 76.5629L-72.7098 76.9786H-72.7098L-72.4319 76.5629ZM-58.7847 88.2698L-58.4307 87.9167V87.9167L-58.7847 88.2698ZM-46.5022 95.1115L-46.3548 94.6337L-46.5022 95.1115ZM-14.8103 99.5206L-14.8354 100.02L-14.8103 99.5206ZM58.9604 124.835L59.2061 124.399L58.9604 124.835ZM84.0562 138.518L84.2635 138.063L84.0562 138.518ZM134.702 146.804L134.348 146.451L134.702 146.804ZM161.239 144.676L161.211 145.175L161.239 144.676ZM174.886 153.95L174.643 154.387L174.886 153.95ZM195.66 162.464L195.844 162L195.66 162.464ZM225.684 170.37L225.537 169.893L225.684 170.37ZM240.393 162.464L240.059 162.092L240.393 162.464ZM291.494 149.617L291.811 150.004L291.494 149.617ZM297.787 139.887L297.299 139.779L297.787 139.887ZM327.128 137.834L327.377 137.4L327.128 137.834ZM367.008 148.477L367.156 147.999L367.008 148.477ZM373.832 135.098L374.315 135.225V135.225L373.832 135.098ZM384.447 126.811L384.536 127.303L384.447 126.811ZM421.976 119.362L422.14 119.834L421.976 119.362ZM439.187 113.812L439.399 114.265L439.187 113.812ZM455.412 105.07L455.274 104.589L455.412 105.07ZM482.631 106.286L482.707 105.792L482.631 106.286ZM511.972 109.099L511.944 108.6L511.972 109.099ZM589.761 96.7839L589.439 97.166V97.166L589.761 96.7839ZM595.22 99.5206L595.192 100.02L595.22 99.5206ZM610.232 98.1523L610.204 97.6531L610.232 98.1523ZM637.527 86.5214L637.136 86.2095L637.527 86.5214ZM639.27 82.7964L639.701 82.5426V82.5426L639.27 82.7964ZM661.409 71.5456L661.263 71.0674L661.409 71.5456ZM677.634 68.7329L677.528 68.2444L677.634 68.7329ZM684.534 64.0958L684.362 63.626L684.534 64.0958ZM696.21 59.1545L696.6 59.4664H696.6L696.21 59.1545ZM706.445 53.6812L706.202 53.2444L706.445 53.6812ZM712.586 42.8105L712.152 42.5629L712.586 42.8105ZM790.375 22.8935L790.729 23.2466L790.375 22.8935ZM816.154 7.15754L816.343 7.62014L816.154 7.15754ZM890.158 2.84256C890.42 2.75502 890.562 2.47175 890.474 2.20985C890.387 1.94795 890.103 1.80659 889.842 1.89413L890.158 2.84256ZM-138.927 75.385C-127.732 73.7222 -113.859 72.3014 -102.544 74.3184L-102.368 73.334C-113.859 71.2858 -127.874 72.7324 -139.073 74.3959L-138.927 75.385ZM-102.544 74.3184C-96.6585 75.3674 -90.6513 75.6908 -84.7786 76.4506L-84.6503 75.4589C-90.6416 74.6837 -96.496 74.3807 -102.368 73.334L-102.544 74.3184ZM-84.7786 76.4506C-83.9723 76.5549 -82.9458 76.5316 -81.8531 76.4731C-80.727 76.4127 -79.5757 76.3183 -78.3772 76.2622C-77.1984 76.2069 -76.0566 76.1941 -75.0589 76.2971C-74.0517 76.4009 -73.2496 76.6177 -72.7098 76.9786L-72.1541 76.1472C-72.8965 75.6509 -73.8929 75.412 -74.9563 75.3023C-76.0295 75.1916 -77.2308 75.2073 -78.424 75.2633C-79.5975 75.3182 -80.8469 75.4177 -81.9066 75.4745C-82.9997 75.5331 -83.9441 75.5502 -84.6503 75.4589L-84.7786 76.4506ZM-72.7098 76.9786C-67.6497 80.3609 -63.6175 84.1322 -59.1387 88.6229L-58.4307 87.9167C-62.9218 83.4137 -67.0099 79.5857 -72.1541 76.1472L-72.7098 76.9786ZM-59.1387 88.6229C-56.8565 90.9112 -55.2466 92.1985 -53.4284 93.1431C-51.6261 94.0794 -49.6366 94.6678 -46.6496 95.5893L-46.3548 94.6337C-49.3786 93.7009 -51.2642 93.1405 -52.9674 92.2557C-54.6547 91.3791 -56.1806 90.1727 -58.4307 87.9167L-59.1387 88.6229ZM-46.6496 95.5893C-43.1134 96.6803 -37.1926 97.2839 -33.6132 97.2839V96.2839C-37.1355 96.2839 -42.9478 95.6848 -46.3548 94.6337L-46.6496 95.5893ZM-33.6132 97.2839C-30.3749 97.2839 -27.311 97.8777 -24.2294 98.522C-21.1614 99.1636 -18.0655 99.8581 -14.8354 100.02L-14.7853 99.0213C-17.9203 98.8641 -20.9304 98.1902 -24.0247 97.5432C-27.1055 96.899 -30.2605 96.2839 -33.6132 96.2839V97.2839ZM-14.8354 100.02C-8.53189 100.336 -3.81693 103.337 0.995117 106.345C5.78288 109.337 10.6685 112.336 17.1848 112.336V111.336C10.9904 111.336 6.33098 108.5 1.5251 105.497C-3.25653 102.508 -8.18381 99.3522 -14.7853 99.0213L-14.8354 100.02ZM17.1848 112.336C30.9199 112.336 46.7261 118.509 58.7148 125.27L59.2061 124.399C47.155 117.603 31.1704 111.336 17.1848 111.336V112.336ZM58.7148 125.27C67.0518 129.972 75.2059 135.034 83.8488 138.973L84.2635 138.063C75.6728 134.148 67.5925 129.129 59.2061 124.399L58.7148 125.27ZM83.8488 138.973C85.4743 139.714 87.1483 140.799 88.8755 142.028C89.7378 142.641 90.6078 143.286 91.4892 143.938C92.3691 144.59 93.2599 145.248 94.157 145.884C97.7212 148.408 101.495 150.649 105.361 150.649V149.649C101.846 149.649 98.308 147.598 94.7349 145.067C93.8477 144.439 92.9651 143.787 92.0842 143.134C91.2048 142.483 90.3267 141.832 89.4551 141.213C87.7146 139.975 85.978 138.845 84.2635 138.063L83.8488 138.973ZM105.361 150.649C107.465 150.649 109.963 150.818 112.648 150.979C115.324 151.139 118.176 151.291 120.955 151.252C123.732 151.213 126.458 150.983 128.882 150.371C131.305 149.76 133.458 148.76 135.057 147.158L134.348 146.451C132.921 147.882 130.956 148.817 128.637 149.402C126.32 149.986 123.68 150.213 120.941 150.252C118.202 150.291 115.384 150.141 112.708 149.981C110.04 149.821 107.503 149.649 105.361 149.649V150.649ZM135.057 147.158C136.078 146.133 137.81 145.438 140.018 145.006C142.211 144.577 144.796 144.422 147.447 144.418C152.761 144.411 158.213 145.008 161.211 145.175L161.267 144.177C158.35 144.014 152.792 143.411 147.446 143.418C144.766 143.422 142.109 143.578 139.827 144.024C137.56 144.468 135.585 145.212 134.348 146.451L135.057 147.158ZM161.211 145.175C164.227 145.343 166.315 146.883 168.293 148.792C168.788 149.27 169.272 149.767 169.763 150.27C170.252 150.772 170.748 151.28 171.258 151.771C172.279 152.752 173.375 153.681 174.643 154.387L175.129 153.513C173.97 152.868 172.945 152.005 171.951 151.05C171.454 150.572 170.969 150.075 170.479 149.572C169.99 149.071 169.495 148.563 168.987 148.073C166.954 146.11 164.646 144.365 161.267 144.177L161.211 145.175ZM174.643 154.387C180.952 157.902 188.852 160.304 195.476 162.929L195.844 162C189.104 159.328 181.364 156.987 175.129 153.513L174.643 154.387ZM195.476 162.929C197.517 163.738 199.831 164.81 202.321 165.93C204.804 167.046 207.453 168.205 210.136 169.174C215.481 171.104 221.067 172.318 225.831 170.848L225.537 169.893C221.104 171.26 215.788 170.151 210.476 168.233C207.83 167.278 205.211 166.132 202.731 165.017C200.259 163.906 197.913 162.82 195.844 162L195.476 162.929ZM225.831 170.848C231.521 169.093 236.214 166.884 240.726 162.837L240.059 162.092C235.686 166.015 231.136 168.165 225.537 169.893L225.831 170.848ZM240.726 162.837C241.461 162.178 242.521 161.746 243.814 161.487C245.103 161.23 246.58 161.152 248.106 161.166C249.63 161.181 251.185 161.287 252.629 161.391C254.063 161.494 255.403 161.596 256.466 161.596V160.596C255.448 160.596 254.152 160.498 252.7 160.393C251.258 160.29 249.675 160.181 248.115 160.166C246.557 160.151 245.003 160.23 243.618 160.507C242.237 160.783 240.98 161.265 240.059 162.092L240.726 162.837ZM256.466 161.596C270.338 161.596 281.116 158.777 291.811 150.004L291.177 149.231C280.703 157.823 270.168 160.596 256.466 160.596V161.596ZM291.811 150.004C294.679 147.651 297.448 143.725 298.275 139.995L297.299 139.779C296.53 143.246 293.911 146.988 291.177 149.231L291.811 150.004ZM298.275 139.995C298.51 138.933 299.205 138.119 300.235 137.488C301.273 136.852 302.623 136.422 304.09 136.137C307.025 135.566 310.284 135.598 312.116 135.598V134.598C310.307 134.598 306.946 134.562 303.9 135.155C302.376 135.452 300.895 135.911 299.713 136.635C298.523 137.364 297.609 138.379 297.299 139.779L298.275 139.995ZM312.116 135.598C317.054 135.598 322.939 136.01 326.88 138.268L327.377 137.4C323.18 134.996 317.043 134.598 312.116 134.598V135.598ZM326.88 138.268C332.285 141.365 337.434 143.808 343.808 143.808V142.808C337.708 142.808 332.751 140.48 327.377 137.4L326.88 138.268ZM343.808 143.808C352.112 143.808 358.701 146.437 366.861 148.955L367.156 147.999C359.086 145.51 352.305 142.808 343.808 142.808V143.808ZM366.861 148.955C367.503 149.153 368.115 149.114 368.679 148.877C369.232 148.646 369.711 148.235 370.128 147.731C370.957 146.73 371.617 145.262 372.154 143.703C373.222 140.6 373.891 136.834 374.315 135.225L373.349 134.97C372.885 136.725 372.267 140.304 371.208 143.377C370.681 144.907 370.068 146.235 369.358 147.094C369.005 147.52 368.649 147.806 368.292 147.955C367.946 148.1 367.576 148.129 367.156 147.999L366.861 148.955ZM374.315 135.225C375.006 132.611 376.285 130.881 378.001 129.681C379.734 128.47 381.946 127.776 384.536 127.303L384.357 126.32C381.712 126.802 379.335 127.529 377.428 128.862C375.506 130.206 374.095 132.142 373.349 134.97L374.315 135.225ZM384.536 127.303C391.396 126.053 396.408 124.651 403.553 124.651V123.651C396.289 123.651 391.131 125.085 384.357 126.32L384.536 127.303ZM403.553 124.651C411.023 124.651 415.52 122.132 422.14 119.834L421.812 118.889C415.042 121.239 410.8 123.651 403.553 123.651V124.651ZM422.14 119.834C424.93 118.866 427.881 118.106 430.836 117.267C433.777 116.433 436.709 115.524 439.399 114.265L438.975 113.359C436.363 114.582 433.497 115.473 430.563 116.305C427.641 117.134 424.638 117.908 421.812 118.889L422.14 119.834ZM439.399 114.265C441.897 113.096 444.73 111.247 447.517 109.545C450.332 107.825 453.102 106.252 455.55 105.551L455.274 104.589C452.678 105.333 449.8 106.978 446.996 108.691C444.163 110.422 441.407 112.222 438.975 113.359L439.399 114.265ZM455.55 105.551C456.442 105.295 457.325 104.989 458.2 104.678C459.079 104.365 459.946 104.049 460.828 103.763C462.588 103.192 464.365 102.757 466.254 102.757V101.757C464.212 101.757 462.321 102.227 460.519 102.811C459.62 103.103 458.733 103.427 457.865 103.736C456.992 104.046 456.135 104.343 455.274 104.589L455.55 105.551ZM466.254 102.757C468.652 102.757 471.361 103.536 474.184 104.444C476.974 105.342 479.876 106.367 482.554 106.78L482.707 105.792C480.129 105.395 477.331 104.406 474.49 103.492C471.682 102.588 468.831 101.757 466.254 101.757V102.757ZM482.554 106.78C484.734 107.117 486.18 107.792 487.78 108.418C489.388 109.048 491.097 109.599 493.7 109.599V108.599C491.266 108.599 489.688 108.091 488.144 107.487C486.593 106.88 485.023 106.149 482.707 105.792L482.554 106.78ZM493.7 109.599C499.712 109.599 505.935 109.936 512 109.598L511.944 108.6C505.912 108.936 499.79 108.599 493.7 108.599V109.599ZM512 109.598C516.689 109.337 520.565 106.861 524.355 104.547C528.184 102.209 531.943 100.021 536.537 100.021V99.0206C531.625 99.0206 527.641 101.369 523.834 103.693C519.988 106.042 516.335 108.355 511.944 108.6L512 109.598ZM536.537 100.021C544.04 100.021 551.41 98.9888 558.704 97.9632C566.009 96.9361 573.236 95.9156 580.512 95.9156V94.9156C573.154 94.9156 565.857 95.9476 558.565 96.973C551.26 98 543.959 99.0206 536.537 99.0206V100.021ZM580.512 95.9156C581.28 95.9156 582.098 95.8699 582.904 95.8357C583.718 95.8011 584.529 95.7776 585.317 95.8171C586.899 95.8963 588.326 96.2265 589.439 97.166L590.084 96.4019C588.727 95.256 587.039 94.902 585.367 94.8184C584.529 94.7764 583.68 94.8019 582.862 94.8366C582.036 94.8717 581.252 94.9156 580.512 94.9156V95.9156ZM589.439 97.166C590.144 97.7617 591.075 98.4408 592.073 98.9866C593.063 99.528 594.161 99.9624 595.192 100.02L595.248 99.0214C594.433 98.976 593.488 98.6211 592.553 98.1093C591.626 97.6021 590.75 96.9642 590.084 96.4019L589.439 97.166ZM595.192 100.02C597.85 100.168 600.367 99.891 602.838 99.5471C605.321 99.2016 607.738 98.792 610.26 98.6515L610.204 97.6531C607.628 97.7966 605.145 98.2164 602.7 98.5566C600.243 98.8986 597.805 99.1638 595.248 99.0214L595.192 100.02ZM610.26 98.6515C614.316 98.4256 619.939 97.074 625.173 94.9943C630.393 92.9203 635.323 90.0842 637.917 86.8332L637.136 86.2095C634.709 89.2504 629.982 92.0076 624.803 94.065C619.64 96.1167 614.125 97.4347 610.204 97.6531L610.26 98.6515ZM637.917 86.8332C638.198 86.4809 638.53 86.2903 638.871 86.1533C639.048 86.0826 639.218 86.0294 639.4 85.9702C639.57 85.9149 639.764 85.8496 639.936 85.7603C640.113 85.6683 640.305 85.5309 640.435 85.3074C640.567 85.0791 640.599 84.8222 640.568 84.5575C640.511 84.0653 640.219 83.4211 639.701 82.5426L638.84 83.0503C639.359 83.9323 639.544 84.4131 639.575 84.6734C639.582 84.7305 639.579 84.7651 639.576 84.7834C639.573 84.8001 639.57 84.8054 639.57 84.8056C639.569 84.8064 639.566 84.8121 639.553 84.823C639.539 84.835 639.515 84.8521 639.474 84.8733C639.386 84.9191 639.267 84.9616 639.09 85.0195C638.924 85.0735 638.715 85.1389 638.5 85.2251C638.058 85.402 637.559 85.6785 637.136 86.2095L637.917 86.8332ZM639.701 82.5426C638.599 80.6728 637.942 79.2901 637.674 78.2677C637.408 77.2503 637.554 76.7119 637.877 76.3746C638.245 75.9907 638.967 75.7197 640.202 75.5664C641.412 75.4161 642.993 75.3905 644.957 75.3905V74.3905C643.002 74.3905 641.36 74.4149 640.078 74.574C638.82 74.7303 637.782 75.0283 637.155 75.6827C636.483 76.3836 636.401 77.3525 636.707 78.5212C637.012 79.6849 637.73 81.167 638.84 83.0503L639.701 82.5426ZM644.957 75.3905C651.766 75.3905 655.278 73.9393 661.555 72.0239L661.263 71.0674C654.936 72.9982 651.584 74.3905 644.957 74.3905V75.3905ZM661.555 72.0239C664.134 71.237 666.82 70.8289 669.551 70.4714C672.27 70.1156 675.045 69.809 677.741 69.2215L677.528 68.2444C674.885 68.8203 672.169 69.1202 669.421 69.4799C666.685 69.838 663.927 70.2544 661.263 71.0674L661.555 72.0239ZM677.741 69.2215C679.685 68.7976 680.709 67.84 681.616 66.8962C682.514 65.9612 683.261 65.092 684.705 64.5655L684.362 63.626C682.663 64.2456 681.76 65.3026 680.895 66.2034C680.038 67.0955 679.184 67.8835 677.528 68.2444L677.741 69.2215ZM684.705 64.5655C685.534 64.2632 686.516 63.9961 687.582 63.7135C688.641 63.4331 689.778 63.1386 690.885 62.7861C693.082 62.0868 695.276 61.1268 696.6 59.4664L695.819 58.8427C694.694 60.2528 692.757 61.1408 690.582 61.8332C689.503 62.1765 688.394 62.4639 687.326 62.7469C686.266 63.0278 685.241 63.3057 684.362 63.626L684.705 64.5655ZM696.6 59.4664C697.836 57.9181 699.464 57.054 701.25 56.3413C702.996 55.6441 704.986 55.0664 706.688 54.118L706.202 53.2444C704.57 54.1531 702.758 54.6623 700.879 55.4126C699.038 56.1475 697.216 57.0914 695.819 58.8427L696.6 59.4664ZM706.688 54.118C707.978 53.3996 708.877 52.6108 709.534 51.7485C710.189 50.8879 710.586 49.9762 710.895 49.0386C711.525 47.1278 711.784 45.2288 713.021 43.058L712.152 42.5629C710.85 44.8463 710.513 47.0038 709.945 48.7253C709.656 49.6039 709.302 50.4023 708.738 51.1426C708.176 51.8812 707.388 52.5838 706.202 53.2444L706.688 54.118ZM713.021 43.058C715.402 38.8801 718.116 35.3356 721.544 32.835C724.963 30.3414 729.118 28.8668 734.422 28.8668V27.8668C728.914 27.8668 724.551 29.4039 720.955 32.0271C717.368 34.6432 714.57 38.3206 712.152 42.5629L713.021 43.058ZM734.422 28.8668C741.006 28.8668 747.522 28.524 754.038 28.182C760.559 27.8398 767.08 27.4985 773.695 27.4985V26.4985C767.05 26.4985 760.503 26.8414 753.986 27.1834C747.465 27.5256 740.975 27.8668 734.422 27.8668V28.8668ZM773.695 27.4985C776.463 27.4985 779.602 27.5559 782.586 27.0625C785.579 26.5676 788.47 25.5116 790.729 23.2466L790.021 22.5404C787.963 24.6038 785.299 25.6003 782.423 26.0759C779.539 26.5528 776.497 26.4985 773.695 26.4985V27.4985ZM790.729 23.2466C798.769 15.1854 805.753 11.9642 816.343 7.62014L815.964 6.69494C805.343 11.0513 798.207 14.3335 790.021 22.5404L790.729 23.2466ZM816.343 7.62014C829.554 2.20124 841.534 1.5 855.882 1.5V0.5C841.503 0.5 829.362 1.19938 815.964 6.69494L816.343 7.62014ZM855.882 1.5C858.55 1.5 860.971 2.16397 863.508 2.85097C866.031 3.53391 868.661 4.23668 871.652 4.23668V3.23668C868.811 3.23668 866.301 2.57111 863.77 1.88572C861.253 1.20438 858.705 0.5 855.882 0.5V1.5ZM871.652 4.23668C877.894 4.23668 884.149 4.85103 890.158 2.84256L889.842 1.89413C884.034 3.83513 878.032 3.23668 871.652 3.23668V4.23668Z" fill="white"/>
</svg>
