<svg width="1440" height="251" viewBox="0 0 1440 251" fill="none" xmlns="http://www.w3.org/2000/svg">
<path d="M1.55556 107.444L1.73059 106.46L1.55556 107.444ZM27.5556 110.556L27.4276 111.547L27.5556 110.556ZM45.5556 111.444L46.1103 110.612L45.5556 111.444ZM83.5556 138.556L83.8496 137.6L83.5556 138.556ZM130 145L130.05 144.001L130 145ZM238.111 182L238.601 181.128L238.111 182ZM274.889 202L275.303 201.09H275.303L274.889 202ZM388 211L388.055 210.002L388 211ZM408 224.556L407.514 225.43L408 224.556ZM438.444 237L438.812 236.07L438.444 237ZM482.444 248.556L482.739 249.511L482.444 248.556ZM504 237L503.333 236.255L504 237ZM578.889 218.222L578.256 217.448L578.889 218.222ZM588.111 204L589.087 204.217L588.111 204ZM608.697 197L608.696 198H608.696L608.697 197ZM609.111 197L609.11 198H609.111V197ZM631.111 201L631.607 200.132L631.111 201ZM689.556 216.556L689.261 217.511L689.556 216.556ZM699.556 197L700.522 197.256H700.522L699.556 197ZM715.111 184.889L714.932 183.905L715.111 184.889ZM770.111 174L770.438 174.945L770.111 174ZM795.333 165.889L794.91 164.983L795.333 165.889ZM819.111 153.111L819.386 154.073L819.111 153.111ZM859 154.889L858.848 155.877L859 154.889ZM902 159L901.945 158.002L902 159ZM1016 141L1016.64 140.235V140.235L1016 141ZM1024 145L1024.06 144.002L1024 145ZM1046 143L1045.94 142.002L1046 143ZM1086 126L1086.78 126.625V126.625L1086 126ZM1088.56 120.556L1087.69 121.064L1088.56 120.556ZM1121 104.111L1121.29 105.068L1121 104.111ZM1144.78 100L1144.57 99.0228L1144.78 100ZM1154.89 93.2222L1154.55 92.2824L1154.89 93.2222ZM1172 86L1171.22 85.3753L1172 86ZM1187 78L1186.51 77.1258V77.1258L1187 78ZM1196 62.1111L1195.13 61.615V61.615L1196 62.1111ZM1310 33L1309.29 32.2929V32.2929L1310 33ZM1347.78 10L1347.4 9.07445V9.07445L1347.78 10ZM1456.32 3.94868C1456.84 3.77403 1457.12 3.20771 1456.95 2.68377C1456.77 2.15983 1456.21 1.87667 1455.68 2.05132L1456.32 3.94868ZM-51.8535 109.989C-35.4497 107.559 -15.1563 105.489 1.38052 108.429L1.73059 106.46C-15.155 103.458 -35.7328 105.579 -52.1465 108.011L-51.8535 109.989ZM1.38052 108.429C10.0084 109.963 18.8524 110.441 27.4276 111.547L27.6835 109.564C18.8719 108.427 10.3327 107.989 1.73059 106.46L1.38052 108.429ZM27.4276 111.547C28.6356 111.703 30.1617 111.668 31.763 111.582C33.4308 111.493 35.0921 111.356 36.8551 111.274C38.5788 111.193 40.2364 111.175 41.6785 111.324C43.1399 111.474 44.2637 111.785 45.0009 112.276L46.1103 110.612C44.9682 109.851 43.4565 109.496 41.8832 109.334C40.2905 109.17 38.5142 109.194 36.7617 109.276C35.0486 109.356 33.1917 109.503 31.6562 109.585C30.0541 109.67 28.6918 109.694 27.6835 109.564L27.4276 111.547ZM45.0009 112.276C52.3939 117.205 58.2881 122.702 64.8484 129.263L66.2627 127.848C59.6777 121.263 53.6715 115.653 46.1103 110.612L45.0009 112.276ZM64.8484 129.263C68.2017 132.616 70.5835 134.519 73.2829 135.918C75.9506 137.3 78.8938 138.167 83.2615 139.511L83.8496 137.6C79.4085 136.233 76.6727 135.422 74.2031 134.142C71.7652 132.879 69.5514 131.137 66.2627 127.848L64.8484 129.263ZM83.2615 139.511C88.4781 141.116 97.1837 142 102.444 142V140C97.2976 140 88.8083 139.126 83.8496 137.6L83.2615 139.511ZM102.444 142C107.16 142 111.626 142.862 116.142 143.804C120.631 144.74 125.191 145.761 129.95 145.999L130.05 144.001C125.481 143.773 121.092 142.793 116.55 141.846C112.036 140.905 107.388 140 102.444 140V142ZM129.95 145.999C139.109 146.457 145.962 150.803 153.022 155.203C160.034 159.574 167.254 164 176.889 164V162C167.896 162 161.128 157.899 154.08 153.506C147.081 149.143 139.803 144.489 130.05 144.001L129.95 145.999ZM176.889 164C196.951 164 220.068 172.998 237.621 182.872L238.601 181.128C220.924 171.185 197.451 162 176.889 162V164ZM237.621 182.872C249.825 189.737 261.795 197.147 274.475 202.91L275.303 201.09C262.727 195.373 250.905 188.049 238.601 181.128L237.621 182.872ZM274.475 202.91C276.834 203.982 279.27 205.556 281.798 207.349C283.059 208.244 284.332 209.185 285.624 210.139C286.913 211.091 288.221 212.055 289.538 212.986C294.76 216.673 300.353 220 306.111 220V218C301.053 218 295.931 215.052 290.692 211.352C289.394 210.435 288.103 209.483 286.812 208.53C285.524 207.579 284.235 206.626 282.955 205.718C280.401 203.906 277.839 202.243 275.303 201.09L274.475 202.91ZM306.111 220C309.185 220 312.835 220.246 316.774 220.481C320.697 220.716 324.884 220.938 328.968 220.881C333.048 220.823 337.065 220.486 340.646 219.586C344.225 218.685 347.43 217.206 349.818 214.818L348.404 213.404C346.358 215.45 343.528 216.798 340.158 217.646C336.789 218.494 332.945 218.825 328.939 218.881C324.937 218.937 320.815 218.719 316.894 218.485C312.989 218.251 309.261 218 306.111 218V220ZM349.818 214.818C351.258 213.378 353.732 212.375 356.952 211.746C360.142 211.124 363.912 210.898 367.789 210.893C375.567 210.882 383.529 211.753 387.945 211.998L388.055 210.002C383.803 209.765 375.63 208.882 367.786 208.893C363.851 208.898 359.938 209.126 356.57 209.783C353.232 210.434 350.273 211.535 348.404 213.404L349.818 214.818ZM387.945 211.998C392.269 212.239 395.27 214.435 398.153 217.211C398.875 217.906 399.581 218.629 400.302 219.366C401.018 220.099 401.748 220.844 402.499 221.565C404.002 223.006 405.627 224.381 407.514 225.43L408.486 223.681C406.815 222.753 405.333 221.511 403.883 220.121C403.159 219.426 402.451 218.703 401.732 217.968C401.016 217.236 400.288 216.49 399.54 215.77C396.545 212.887 393.104 210.282 388.055 210.002L387.945 211.998ZM407.514 225.43C416.781 230.578 428.401 234.105 438.077 237.93L438.812 236.07C428.903 232.152 417.603 228.747 408.486 223.681L407.514 225.43ZM438.077 237.93C441.061 239.11 444.443 240.672 448.098 242.311C451.738 243.943 455.627 245.64 459.569 247.06C467.411 249.884 475.668 251.687 482.739 249.511L482.15 247.6C475.742 249.572 468.023 247.978 460.247 245.178C456.38 243.786 452.549 242.115 448.916 240.486C445.297 238.863 441.852 237.272 438.812 236.07L438.077 237.93ZM482.739 249.511C491.1 246.938 498.017 243.695 504.667 237.745L503.333 236.255C496.963 241.954 490.333 245.082 482.15 247.6L482.739 249.511ZM504.667 237.745C505.693 236.827 507.194 236.21 509.066 235.836C510.929 235.464 513.073 235.35 515.301 235.372C517.526 235.393 519.796 235.547 521.913 235.699C524.011 235.85 525.986 236 527.556 236V234C526.076 234 524.189 233.857 522.056 233.704C519.943 233.553 517.615 233.393 515.32 233.372C513.029 233.35 510.73 233.465 508.675 233.875C506.628 234.283 504.734 235.002 503.333 236.255L504.667 237.745ZM527.556 236C547.93 236 563.79 231.868 579.522 218.996L578.256 217.448C562.965 229.959 547.591 234 527.556 234V236ZM579.522 218.996C583.761 215.528 587.86 209.741 589.087 204.217L587.135 203.783C586.025 208.779 582.227 214.199 578.256 217.448L579.522 218.996ZM589.087 204.217C589.404 202.792 590.323 201.677 591.729 200.791C593.15 199.896 595.018 199.271 597.085 198.846C601.219 197.996 605.876 197.997 608.696 198L608.698 196C605.904 195.997 601.047 195.99 596.682 196.887C594.499 197.336 592.37 198.023 590.663 199.099C588.94 200.184 587.598 201.7 587.135 203.783L589.087 204.217ZM608.696 198L609.11 198L609.112 196L608.698 196L608.696 198ZM609.111 198C616.351 198 624.909 198.607 630.615 201.868L631.607 200.132C625.388 196.578 616.327 196 609.111 196V198ZM630.615 201.868C638.544 206.399 646.141 210 655.556 210V208C646.689 208 639.475 204.628 631.607 200.132L630.615 201.868ZM655.556 210C667.674 210 677.279 213.824 689.261 217.511L689.85 215.6C678.048 211.968 668.058 208 655.556 208V210ZM689.261 217.511C690.262 217.819 691.222 217.76 692.106 217.39C692.968 217.029 693.704 216.396 694.332 215.638C695.579 214.136 696.559 211.953 697.349 209.667C698.917 205.123 699.91 199.568 700.522 197.256L698.589 196.744C697.899 199.348 697.007 204.529 695.458 209.014C694.689 211.241 693.802 213.145 692.793 214.361C692.294 214.963 691.804 215.348 691.334 215.545C690.885 215.733 690.406 215.771 689.85 215.6L689.261 217.511ZM700.522 197.256C701.518 193.493 703.357 191.02 705.818 189.305C708.311 187.567 711.508 186.56 715.29 185.873L714.932 183.905C711.042 184.612 707.514 185.684 704.674 187.664C701.801 189.667 699.698 192.552 698.589 196.744L700.522 197.256ZM715.29 185.873C725.365 184.041 732.673 182 743.111 182V180C732.435 180 724.838 182.104 714.932 183.905L715.29 185.873ZM743.111 182C754.117 182 760.775 178.29 770.438 174.945L769.784 173.055C759.823 176.503 753.674 180 743.111 180V182ZM770.438 174.945C774.517 173.533 778.829 172.426 783.167 171.198C787.48 169.978 791.793 168.644 795.756 166.795L794.91 164.983C791.103 166.76 786.92 168.058 782.622 169.274C778.349 170.483 773.935 171.618 769.784 173.055L770.438 174.945ZM795.756 166.795C799.434 165.079 803.607 162.363 807.679 159.882C811.807 157.366 815.837 155.086 819.386 154.073L818.836 152.15C814.992 153.248 810.745 155.671 806.638 158.174C802.476 160.711 798.456 163.328 794.91 164.983L795.756 166.795ZM819.386 154.073C820.702 153.696 822.003 153.247 823.285 152.792C824.576 152.334 825.842 151.873 827.129 151.457C829.698 150.626 832.271 150 835 150V148C831.967 148 829.165 148.696 826.514 149.554C825.192 149.981 823.886 150.457 822.617 150.907C821.339 151.36 820.089 151.792 818.836 152.15L819.386 154.073ZM835 150C838.467 150 842.4 151.124 846.54 152.452C850.616 153.76 854.896 155.269 858.848 155.877L859.152 153.901C855.401 153.323 851.327 151.888 847.151 150.548C843.04 149.228 838.824 148 835 148V150ZM858.848 155.877C862.006 156.363 864.093 157.336 866.45 158.256C868.824 159.183 871.362 160 875.222 160V158C871.701 158 869.421 157.269 867.177 156.393C864.915 155.51 862.582 154.428 859.152 153.901L858.848 155.877ZM875.222 160C884.012 160 893.159 160.493 902.055 159.998L901.945 158.002C893.113 158.492 884.168 158 875.222 158V160ZM902.055 159.998C909.006 159.612 914.745 155.951 920.285 152.577C925.903 149.156 931.351 146 938 146V144C930.717 144 924.818 147.474 919.245 150.869C913.594 154.31 908.299 157.648 901.945 158.002L902.055 159.998ZM938 146C949.017 146 959.836 144.489 970.522 142.99C981.231 141.489 991.804 140 1002.44 140V138C991.641 138 980.928 139.511 970.244 141.01C959.537 142.511 948.855 144 938 144V146ZM1002.44 140C1003.58 140 1004.79 139.933 1005.96 139.883C1007.15 139.833 1008.33 139.799 1009.47 139.856C1011.77 139.97 1013.79 140.447 1015.36 141.765L1016.64 140.235C1014.59 138.505 1012.05 137.982 1009.57 137.858C1008.33 137.796 1007.08 137.834 1005.88 137.885C1004.66 137.936 1003.52 138 1002.44 138V140ZM1015.36 141.765C1016.4 142.645 1017.78 143.648 1019.26 144.456C1020.73 145.255 1022.38 145.911 1023.94 145.998L1024.06 144.002C1022.92 143.938 1021.57 143.441 1020.22 142.701C1018.88 141.969 1017.61 141.048 1016.64 140.235L1015.36 141.765ZM1023.94 145.998C1027.87 146.216 1031.58 145.808 1035.2 145.305C1038.85 144.799 1042.37 144.203 1046.06 143.998L1045.94 142.002C1042.15 142.212 1038.5 142.828 1034.93 143.324C1031.33 143.824 1027.78 144.208 1024.06 144.002L1023.94 145.998ZM1046.06 143.998C1052.04 143.666 1060.3 141.682 1067.99 138.635C1075.65 135.599 1082.93 131.433 1086.78 126.625L1085.22 125.375C1081.71 129.764 1074.83 133.773 1067.26 136.775C1059.71 139.767 1051.65 141.684 1045.94 142.002L1046.06 143.998ZM1086.78 126.625C1087.15 126.158 1087.59 125.902 1088.07 125.712C1088.32 125.613 1088.56 125.538 1088.83 125.451C1089.07 125.37 1089.38 125.269 1089.65 125.127C1089.94 124.98 1090.27 124.749 1090.49 124.362C1090.72 123.965 1090.77 123.527 1090.72 123.098C1090.63 122.316 1090.17 121.33 1089.42 120.047L1087.69 121.064C1088.46 122.354 1088.7 123.013 1088.74 123.33C1088.75 123.452 1088.72 123.427 1088.76 123.356C1088.8 123.295 1088.83 123.302 1088.73 123.352C1088.63 123.407 1088.47 123.463 1088.21 123.549C1087.97 123.626 1087.65 123.725 1087.33 123.855C1086.65 124.124 1085.88 124.551 1085.22 125.375L1086.78 126.625ZM1089.42 120.047C1087.8 117.318 1086.86 115.323 1086.47 113.867C1086.09 112.422 1086.33 111.751 1086.71 111.356C1087.18 110.868 1088.15 110.478 1089.95 110.255C1091.71 110.038 1094.01 110 1096.89 110V108C1094.03 108 1091.6 108.035 1089.71 108.27C1087.86 108.499 1086.25 108.942 1085.26 109.971C1084.18 111.093 1084.08 112.626 1084.54 114.376C1085 116.115 1086.07 118.308 1087.69 121.064L1089.42 120.047ZM1096.89 110C1106.92 110 1112.11 107.863 1121.29 105.068L1120.71 103.154C1111.42 105.981 1106.55 108 1096.89 108V110ZM1121.29 105.068C1125.05 103.925 1128.96 103.33 1132.97 102.808C1136.94 102.289 1141.03 101.839 1144.99 100.977L1144.57 99.0228C1140.71 99.8616 1136.74 100.298 1132.71 100.825C1128.7 101.348 1124.64 101.959 1120.71 103.154L1121.29 105.068ZM1144.99 100.977C1147.92 100.341 1149.46 98.8964 1150.8 97.5029C1152.13 96.1273 1153.18 94.9067 1155.23 94.162L1154.55 92.2824C1151.99 93.2128 1150.62 94.8076 1149.36 96.1154C1148.12 97.4052 1146.92 98.5119 1144.57 99.0228L1144.99 100.977ZM1155.23 94.162C1156.43 93.7249 1157.86 93.3373 1159.42 92.9239C1160.97 92.5146 1162.65 92.0824 1164.28 91.5647C1167.5 90.5408 1170.79 89.1187 1172.78 86.6247L1171.22 85.3753C1169.62 87.3693 1166.85 88.6482 1163.67 89.6585C1162.1 90.1579 1160.48 90.576 1158.91 90.9903C1157.36 91.4004 1155.85 91.8096 1154.55 92.2824L1155.23 94.162ZM1172.78 86.6247C1174.55 84.4161 1176.88 83.1743 1179.48 82.1385C1182.01 81.1335 1184.97 80.271 1187.49 78.8742L1186.51 77.1258C1184.14 78.4436 1181.53 79.1697 1178.74 80.2804C1176.03 81.3603 1173.31 82.7612 1171.22 85.3753L1172.78 86.6247ZM1187.49 78.8742C1189.4 77.8089 1190.75 76.6328 1191.74 75.3392C1192.72 74.0491 1193.32 72.6858 1193.78 71.2994C1194.72 68.4553 1195.07 65.7497 1196.87 62.6072L1195.13 61.615C1193.21 64.983 1192.69 68.2064 1191.88 70.6714C1191.46 71.9395 1190.95 73.0759 1190.15 74.1255C1189.35 75.1718 1188.22 76.1757 1186.51 77.1258L1187.49 78.8742ZM1196.87 62.6073C1200.35 56.5181 1204.3 51.3731 1209.28 47.749C1214.25 44.1388 1220.28 42 1228 42V40C1219.88 40 1213.43 42.2631 1208.11 46.1317C1202.81 49.9864 1198.68 55.3969 1195.13 61.615L1196.87 62.6073ZM1228 42C1237.66 42 1247.21 41.4984 1256.76 40.9986C1266.32 40.4984 1275.87 40 1285.56 40V38C1275.81 38 1266.21 38.5016 1256.66 39.0014C1247.1 39.5016 1237.6 40 1228 40V42ZM1285.56 40C1289.6 40 1294.23 40.0848 1298.63 39.3591C1303.04 38.6308 1307.34 37.0717 1310.71 33.7071L1309.29 32.2929C1306.33 35.2549 1302.49 36.6958 1298.3 37.3858C1294.1 38.0785 1289.67 38 1285.56 38V40ZM1310.71 33.7071C1322.45 21.9637 1332.64 17.2717 1348.16 10.9255L1347.4 9.07445C1331.83 15.4451 1321.33 20.2586 1309.29 32.2929L1310.71 33.7071ZM1348.16 10.9255C1367.47 3.02545 1384.98 2 1406 2V0C1384.92 0 1367.08 1.02173 1347.4 9.07445L1348.16 10.9255ZM1406 2C1409.87 2 1413.38 2.9598 1417.11 3.96542C1420.8 4.96299 1424.69 6 1429.11 6V4C1424.99 4 1421.34 3.03701 1417.63 2.03458C1413.95 1.0402 1410.18 0 1406 0V2ZM1429.11 6C1438.22 6 1447.46 6.90214 1456.32 3.94868L1455.68 2.05132C1447.23 4.8705 1438.5 4 1429.11 4V6Z" fill="white"/>
</svg>
